#!OML:ASF F:\VICON\USERDATA\INSTALL\rory3\rory3.ASF
:FULLY-SPECIFIED
:DEGREES
259
root 0.962889 16.4914 -14.4532 0.388613 -7.37502 4.05069
lowerback 12.5368 0.00236094 3.26532
upperback -0.991898 0.892322 4.92943
thorax -8.1596 0.407795 3.24936
lowerneck -23.3975 -1.90879 -8.87372
upperneck 8.97754 -0.409271 3.73443
head 6.50425 -0.186771 2.5881
rclavicle -4.37326e-015 -2.22639e-014
rhumerus -29.8746 -10.2384 -81.2724
rradius 52.3319
rwrist 5.33211
rhand -17.8668 13.6638
rfingers 7.12502
rthumb 8.39891 -16.1492
lclavicle -4.37326e-015 -2.22639e-014
lhumerus -44.2216 5.73149 91.0934
lradius 56.6199
lwrist 4.03751
lhand -26.2461 25.9447
lfingers 7.12502
lthumb 0.308034 55.9242
rfemur -18.9647 6.12152 15.2915
rtibia 54.3042
rfoot -24.9467 -15.5317
rtoes -8.31988
lfemur -17.3093 3.80956 -23.7684
ltibia 49.5134
lfoot -26.4919 7.23894
ltoes -8.32618
260
root 0.949659 16.609 -14.4283 0.789951 -6.72312 4.19737
lowerback 12.0384 -0.261775 3.15551
upperback -1.25059 0.509081 4.93951
thorax -8.14196 0.227826 3.39534
lowerneck -23.5852 -1.94595 -8.73749
upperneck 9.41219 -0.45083 3.5145
head 6.6781 -0.229478 2.49229
rclavicle -1.70955e-014 6.36111e-014
rhumerus -30.3099 -9.84171 -81.6212
rradius 52.8999
rwrist 6.48857
rhand -17.0815 14.4495
rfingers 7.12502
rthumb 9.15673 -15.3317
lclavicle -1.70955e-014 6.36111e-014
lhumerus -44.4909 5.0653 91.2834
lradius 56.4224
lwrist 4.69566
lhand -25.6838 24.8988
lfingers 7.12502
lthumb 0.851117 54.8768
rfemur -18.4165 6.07367 15.1736
rtibia 52.7422
rfoot -23.7429 -15.4676
rtoes -8.12331
lfemur -16.8058 3.22404 -23.8671
ltibia 47.6541
lfoot -25.2215 6.71882
ltoes -8.43806
261
root 0.944054 16.733 -14.3939 1.07033 -6.40659 4.3501
lowerback 11.4347 -0.41469 3.0995
upperback -1.36372 0.264413 4.93224
thorax -7.90869 0.111577 3.45604
lowerneck -23.7342 -1.9783 -8.646
upperneck 9.75839 -0.483742 3.3522
head 6.81699 -0.263112 2.42265
rclavicle -1.05356e-014 -9.54166e-015
rhumerus -30.7786 -9.2802 -81.9239
rradius 53.6352
rwrist 6.95979
rhand -16.2704 15.8216
rfingers 7.12502
rthumb 9.93929 -13.9238
lclavicle -1.05356e-014 -9.54166e-015
lhumerus -44.5875 4.65265 91.3824
lradius 56.0122
lwrist 4.97404
lhand -25.3654 21.0328
lfingers 7.12502
lthumb 1.15868 51.0094
rfemur -17.8063 6.36259 15.0119
rtibia 51.2624
rfoot -22.5219 -15.3623
rtoes -8.13999
lfemur -16.1488 2.78354 -24.0276
ltibia 45.7612
lfoot -23.6221 6.35857
ltoes -8.42287
262
root 0.940603 16.8685 -14.3519 1.25948 -6.4818 4.51416
lowerback 10.8469 -0.477152 2.95313
upperback -1.40382 0.127009 4.95385
thorax -7.6094 0.0513372 3.57491
lowerneck -23.6881 -2.01119 -8.44398
upperneck 9.80425 -0.544069 3.02754
head 6.82723 -0.316482 2.275
rclavicle -3.18055e-015 6.99722e-014
rhumerus -31.3441 -8.41059 -82.2027
rradius 54.5122
rwrist 6.69471
rhand -17.0576 15.5411
rfingers 7.12502
rthumb 9.17979 -14.2391
lclavicle -3.18055e-015 6.99722e-014
lhumerus -44.617 4.55643 91.3529
lradius 55.6674
lwrist 4.39563
lhand -25.4971 18.4619
lfingers 7.12502
lthumb 1.03145 48.4391
rfemur -17.236 6.95934 14.7973
rtibia 49.8388
rfoot -21.3308 -14.9193
rtoes -6.62185
lfemur -15.311 2.62019 -24.2107
ltibia 43.868
lfoot -22.1208 5.91697
ltoes -8.29468
263
root 0.934935 17.007 -14.305 1.43466 -6.73186 4.63619
lowerback 10.3878 -0.535383 2.72697
upperback -1.52391 0.00448145 5.04901
thorax -7.47015 0.003327 3.81917
lowerneck -23.3873 -1.96958 -8.44282
upperneck 9.72186 -0.497799 2.90316
head 6.75037 -0.306247 2.23812
rclavicle -9.54166e-015 3.18055e-014
rhumerus -31.8792 -7.57081 -82.3949
rradius 55.0773
rwrist 6.21659
rhand -17.4577 15.3841
rfingers 7.12502
rthumb 8.79366 -14.4127
lclavicle -9.54166e-015 3.18055e-014
lhumerus -44.951 4.63593 91.3001
lradius 55.6003
lwrist 3.8905
lhand -24.4315 18.6965
lfingers 7.12502
lthumb 2.06063 48.6663
rfemur -16.7387 7.64866 14.6345
rtibia 48.4532
rfoot -19.8369 -14.6058
rtoes -6.4919
lfemur -14.4269 2.64016 -24.3463
ltibia 42.0152
lfoot -20.6974 5.55062
ltoes -7.5288
264
root 0.92861 17.1304 -14.2683 1.57161 -6.85447 4.59249
lowerback 10.2045 -0.560111 2.69715
upperback -1.73701 -0.0272521 5.10097
thorax -7.59272 -0.0087618 3.89964
lowerneck -23.223 -1.90049 -8.51273
upperneck 10.1992 -0.439722 3.16197
head 6.88001 -0.266916 2.34601
rclavicle -1.53064e-014 -1.27222e-014
rhumerus -32.5714 -7.16714 -82.4924
rradius 55.6249
rwrist 5.68401
rhand -18.0914 14.6646
rfingers 7.12502
rthumb 8.18217 -15.157
lclavicle -1.53064e-014 -1.27222e-014
lhumerus -45.3686 4.32664 91.2788
lradius 55.4933
lwrist 3.79416
lhand -21.6857 22.3965
lfingers 7.12502
lthumb 4.71225 52.3241
rfemur -16.1568 8.02776 14.6826
rtibia 47.112
rfoot -18.1767 -14.445
rtoes -7.99185
lfemur -13.6567 2.6049 -24.2818
ltibia 40.288
lfoot -18.9426 5.26349
ltoes -6.95211
265
root 0.92121 17.2386 -14.2491 1.79865 -6.6727 4.47627
lowerback 9.97764 -0.599787 2.77665
upperback -1.87711 -0.072194 5.14641
thorax -7.61128 -0.0326841 3.9098
lowerneck -23.3801 -1.95315 -8.59515
upperneck 10.8222 -0.513666 3.42591
head 7.11677 -0.291483 2.44381
rclavicle -1.99779e-014 7.31528e-014
rhumerus -33.0503 -7.1471 -82.4775
rradius 56.2267
rwrist 5.10297
rhand -19.2376 12.8579
rfingers 7.12502
rthumb 7.0758 -17.0038
lclavicle -1.99779e-014 7.31528e-014
lhumerus -45.3608 3.92136 91.2905
lradius 55.3051
lwrist 3.67308
lhand -20.5114 25.1436
lfingers 7.12502
lthumb 5.84614 55.0429
rfemur -15.678 8.09042 14.7947
rtibia 45.8484
rfoot -17.0239 -13.9423
rtoes -7.02141
lfemur -13.1319 2.4139 -24.1111
ltibia 38.7118
lfoot -17.3102 4.61799
ltoes -8.57605
266
root 0.914738 17.3542 -14.2254 2.01952 -6.46223 4.47127
lowerback 9.59614 -0.649061 2.7386
upperback -1.86799 -0.164573 5.18138
thorax -7.37734 -0.0761453 3.97342
lowerneck -23.593 -2.07083 -8.51924
upperneck 10.9197 -0.672683 3.40862
head 7.19227 -0.366393 2.40706
rclavicle 6.75868e-015 -2.8625e-014
rhumerus -33.3668 -7.21215 -82.4041
rradius 56.8681
rwrist 4.40835
rhand -21.1451 10.3384
rfingers 7.12502
rthumb 5.23429 -19.5769
lclavicle 6.75868e-015 -2.8625e-014
lhumerus -44.9154 3.69762 91.2218
lradius 55.0868
lwrist 3.05094
lhand -20.9416 24.2375
lfingers 7.12502
lthumb 5.43074 54.148
rfemur -15.2589 8.10373 14.7712
rtibia 44.6369
rfoot -15.8938 -13.435
rtoes -5.51691
lfemur -12.6467 2.21614 -24.0788
ltibia 37.2788
lfoot -16.1062 3.78067
ltoes -11.3516
267
root 0.905785 17.4712 -14.197 2.14111 -6.41186 4.5259
lowerback 9.38733 -0.607237 2.57735
upperback -1.87893 -0.140824 5.17571
thorax -7.2693 -0.0580729 4.04979
lowerneck -23.7158 -2.19804 -8.28625
upperneck 10.9166 -0.879152 3.25166
head 7.22136 -0.469435 2.29106
rclavicle 1.55052e-014 -5.40694e-014
rhumerus -33.7476 -7.35662 -82.3599
rradius 57.4964
rwrist 3.43004
rhand -21.258 9.91393
rfingers 7.12502
rthumb 5.12519 -20.0041
lclavicle 1.55052e-014 -5.40694e-014
lhumerus -44.5303 3.27926 91.1382
lradius 54.8524
lwrist 2.32698
lhand -20.6964 23.6412
lfingers 7.12502
lthumb 5.66745 53.5454
rfemur -14.8424 8.2417 14.7064
rtibia 43.508
rfoot -14.4166 -13.0986
rtoes -4.96916
lfemur -12.1282 2.09964 -24.103
ltibia 35.9417
lfoot -14.7814 3.18364
ltoes -12.8299
268
root 0.897445 17.5821 -14.1757 2.30443 -6.38354 4.43531
lowerback 9.29503 -0.619928 2.57995
upperback -1.99885 -0.153007 5.21721
thorax -7.34438 -0.0624559 4.09639
lowerneck -23.7043 -2.26744 -8.23975
upperneck 11.2175 -0.98721 3.24091
head 7.32621 -0.525591 2.26834
rclavicle 7.95139e-016 -6.36111e-015
rhumerus -34.0813 -7.2117 -82.3992
rradius 57.973
rwrist 2.02795
rhand -19.5228 11.4567
rfingers 7.12502
rthumb 6.8005 -18.4141
lclavicle 7.95139e-016 -6.36111e-015
lhumerus -44.4348 3.00181 91.0363
lradius 54.6537
lwrist 1.85481
lhand -21.1153 23.3598
lfingers 7.12502
lthumb 5.26304 53.2745
rfemur -14.5325 8.31319 14.7937
rtibia 42.4497
rfoot -12.9953 -12.6084
rtoes -3.52693
lfemur -11.6706 1.90948 -23.9577
ltibia 34.6123
lfoot -13.3652 2.80148
ltoes -12.5317
269
root 0.892409 17.6829 -14.1586 2.43592 -6.24127 4.43974
lowerback 9.13234 -0.757591 2.52457
upperback -2.06111 -0.344503 5.29313
thorax -7.30712 -0.15191 4.23649
lowerneck -23.4054 -2.29347 -8.47093
upperneck 11.2328 -0.996701 3.35715
head 7.28663 -0.531395 2.34303
rclavicle 1.30204e-014 4.13472e-014
rhumerus -34.4065 -7.05731 -82.2707
rradius 58.3506
rwrist 1.2086
rhand -18.377 12.2318
rfingers 7.12502
rthumb 7.90653 -17.6003
lclavicle 1.30204e-014 4.13472e-014
lhumerus -44.3368 3.1155 90.8852
lradius 54.6064
lwrist 1.44383
lhand -21.8626 22.4944
lfingers 7.12502
lthumb 4.54147 52.4257
rfemur -14.1729 8.14032 14.7581
rtibia 41.4516
rfoot -11.7349 -12.0821
rtoes -2.16104
lfemur -11.2059 1.63018 -23.9348
ltibia 33.3042
lfoot -11.9685 2.41402
ltoes -12.1084
